<svg width="40" height="40" viewBox="0 0 40 40" fill="none" xmlns="http://www.w3.org/2000/svg">
<path d="M22.3242 9.11713C21.5612 9.0346 20.7859 8.9873 20 8.97553C16.5658 8.99077 13.0059 9.8261 9.63623 11.4267C7.1343 12.6641 4.69713 14.411 2.58057 16.5659C1.54107 17.6659 0.214367 19.2586 0 20.9579C0.0253333 22.43 1.6051 24.2469 2.58057 25.3501C4.56533 27.4203 6.93903 29.1172 9.63623 30.4892C9.72792 30.5337 9.81988 30.5777 9.9121 30.621L7.4097 34.9911L10.8099 37.0006L29.1904 4.99953L25.9175 2.99927L22.3242 9.11713ZM30.0854 11.2998L27.5879 15.6283C28.7369 17.1211 29.4189 18.9619 29.4189 20.9579C29.4189 25.9332 25.2015 29.9667 19.9975 29.9667C19.7726 29.9667 19.5545 29.9425 19.3335 29.9277L17.6806 32.789C18.4429 32.8706 19.2136 32.9301 20 32.9404C23.4374 32.9249 26.9953 32.08 30.3613 30.4892C32.8632 29.2518 35.3028 27.5049 37.4194 25.3501C38.4589 24.2501 39.7856 22.6573 40 20.9579C39.9746 19.4859 38.3949 17.669 37.4194 16.5658C35.4346 14.4956 33.0585 12.7987 30.3613 11.4267C30.2703 11.3825 30.1771 11.3428 30.0854 11.2998ZM19.9976 11.9492C20.2258 11.9492 20.4522 11.9583 20.6763 11.9736L18.7402 15.3256C16.0231 15.8765 13.9844 18.1883 13.9844 20.9555C13.9844 21.6507 14.1124 22.3162 14.3481 22.933C14.3484 22.9337 14.3479 22.9348 14.3481 22.9355L12.4072 26.2973C11.2555 24.8032 10.5761 22.9563 10.5761 20.9579C10.5762 15.9827 14.7936 11.9492 19.9976 11.9492ZM25.6299 19.017L21.2671 26.5756C23.9696 26.0144 25.9937 23.7131 25.9937 20.9555C25.9937 20.2731 25.8575 19.6242 25.6299 19.017Z" fill="#8061C3"/>
</svg>
